<svg xmlns="http://www.w3.org/2000/svg" viewBox="0 0 96 96" width="96" height="96">
<defs><linearGradient id="g" x1="0" y1="0" x2="1" y2="1"><stop offset="0" stop-color="#14b8a6"/><stop offset="1" stop-color="#134e4a"/></linearGradient>
<radialGradient id="h" cx="0.3" cy="0.2" r="0.8"><stop offset="0" stop-color="#fff" stop-opacity="0.35"/><stop offset="1" stop-color="#fff" stop-opacity="0"/></radialGradient></defs>
<rect width="96" height="96" rx="18" fill="url(#g)"/><rect width="96" height="96" rx="18" fill="url(#h)"/>
<path d="M48 16 C26 16 14 32 14 48 c0 14 10 26 22 26 c8 0 8-8 4-12 c-4-5 0-10 6-10 h10 c14 0 26-8 26-20 C82 30 68 16 48 16Z" fill="#fff"/>
<circle cx="30" cy="44" r="5" fill="#f43f5e"/><circle cx="36" cy="30" r="5" fill="#f59e0b"/><circle cx="52" cy="26" r="5" fill="#3b82f6"/><circle cx="66" cy="34" r="5" fill="#22c55e"/>
<path d="M58 84 l4-18 l10-2 l14-22 l4 3-14 22 l0 10 Z" fill="#fde68a" stroke="#134e4a" stroke-width="2" stroke-linejoin="round"/>
</svg>
