<svg xmlns="http://www.w3.org/2000/svg" viewBox="0 0 96 96" width="96" height="96">
<defs><linearGradient id="g" x1="0" y1="0" x2="1" y2="1"><stop offset="0" stop-color="#f59e0b"/><stop offset="1" stop-color="#9a3412"/></linearGradient>
<radialGradient id="h" cx="0.3" cy="0.2" r="0.8"><stop offset="0" stop-color="#fff" stop-opacity="0.35"/><stop offset="1" stop-color="#fff" stop-opacity="0"/></radialGradient></defs>
<rect width="96" height="96" rx="18" fill="url(#g)"/><rect width="96" height="96" rx="18" fill="url(#h)"/>
<g transform="rotate(-12 36 44)"><path d="M18 22 h36 v22 c0 14-8 24-18 24 s-18-10-18-24 Z" fill="#fff"/>
<g fill="#c2410c"><path d="M25 36 q5-5 10 0 q-5 3-10 0Z"/><path d="M39 36 q5-5 10 0 q-5 3-10 0Z"/><path d="M26 50 q10 10 20 0 q-10 4-20 0Z"/></g></g>
<g transform="rotate(12 62 54)"><path d="M44 34 h36 v22 c0 14-8 24-18 24 s-18-10-18-24 Z" fill="#fde68a" stroke="#9a3412" stroke-width="2"/>
<g fill="#9a3412"><path d="M51 49 q5 4 10 0 q-5-2-10 0Z"/><path d="M65 49 q5 4 10 0 q-5-2-10 0Z"/><path d="M52 68 q10-9 20 0 q-10-3-20 0Z"/></g></g>
</svg>
